<svg width="512" height="512" viewBox="0 0 64 64" fill="none" xmlns="http://www.w3.org/2000/svg">
  <path d="M12 22C12 19.7909 13.7909 18 16 18H48C50.2091 18 52 19.7909 52 22V46C52 48.2091 50.2091 50 48 50H16C13.7909 50 12 48.2091 12 46V22Z" fill="#0f172a" opacity="0.9"/>
  <path d="M16 18H44C46.2091 18 48 19.7909 48 22V24H16C13.7909 24 12 22.2091 12 20V20C12 18.8954 12.8954 18 14 18H16Z" fill="#0f172a" opacity="0.6"/>
  <rect x="12" y="28" width="40" height="1.5" rx="0.75" fill="#10b981" opacity="0.3"/>
  <circle cx="26" cy="20" r="4.5" fill="#10b981" opacity="0.95"/>
  <circle cx="26" cy="20" r="3" fill="#059669" opacity="0.4"/>
  <circle cx="35" cy="16" r="4" fill="#10b981" opacity="0.85"/>
  <circle cx="35" cy="16" r="2.5" fill="#059669" opacity="0.3"/>
  <circle cx="43" cy="13" r="3.5" fill="#10b981" opacity="0.75"/>
  <circle cx="43" cy="13" r="2" fill="#059669" opacity="0.25"/>
  <path d="M24 22L32 14L40 18L48 10" stroke="#10b981" stroke-width="2.5" stroke-linecap="round" stroke-linejoin="round" fill="none" opacity="0.9"/>
  <path d="M48 10L44 10L48 10L48 14" stroke="#10b981" stroke-width="2.5" stroke-linecap="round" stroke-linejoin="round" fill="none" opacity="0.9"/>
  <path d="M16 24C16 24 18 24 18 26V44C18 45 17 46 16 46" stroke="#10b981" stroke-width="0.5" opacity="0.2" fill="none"/>
  <rect x="20" y="36" width="20" height="2" rx="1" fill="#10b981" opacity="0.25"/>
</svg>